<mxfile host="app.diagrams.net" modified="2021-05-31T19:37:02.060Z" agent="5.0 (Windows NT 10.0; Win64; x64) AppleWebKit/537.36 (KHTML, like Gecko) Chrome/90.0.4430.212 Safari/537.36" etag="8QU5TxBrHxq2FUfHOLc_" version="14.6.9" type="github">
  <diagram id="ZwnTsQdj2YsQ4eZyknDP" name="Page-1">
    <mxGraphModel dx="1673" dy="829" grid="1" gridSize="10" guides="1" tooltips="1" connect="1" arrows="1" fold="1" page="1" pageScale="1" pageWidth="827" pageHeight="1169" background="#7EA6E0" math="0" shadow="0">
      <root>
        <mxCell id="0" />
        <mxCell id="1" parent="0" />
        <mxCell id="ngTAUGNhP66DBJBYgdPT-110" value="" style="rounded=0;whiteSpace=wrap;html=1;fontSize=12;shadow=0;" parent="1" vertex="1">
          <mxGeometry x="760" y="50" width="950" height="760" as="geometry" />
        </mxCell>
        <mxCell id="SECi2cDUqw07FHAR2u1D-1" value="Поиск товара" style="ellipse;whiteSpace=wrap;html=1;" parent="1" vertex="1">
          <mxGeometry x="1300" y="520" width="100" height="50" as="geometry" />
        </mxCell>
        <mxCell id="SECi2cDUqw07FHAR2u1D-3" value="Заказать товар в прокат" style="ellipse;whiteSpace=wrap;html=1;" parent="1" vertex="1">
          <mxGeometry x="1310" y="400" width="110" height="50" as="geometry" />
        </mxCell>
        <mxCell id="ngTAUGNhP66DBJBYgdPT-4" value="Арендатор&lt;br&gt;" style="shape=umlActor;verticalLabelPosition=bottom;verticalAlign=top;html=1;" parent="1" vertex="1">
          <mxGeometry x="1630" y="370" width="30" height="60" as="geometry" />
        </mxCell>
        <mxCell id="ngTAUGNhP66DBJBYgdPT-8" value="Оформить заказ" style="ellipse;whiteSpace=wrap;html=1;" parent="1" vertex="1">
          <mxGeometry x="1110" y="310" width="100" height="50" as="geometry" />
        </mxCell>
        <mxCell id="ngTAUGNhP66DBJBYgdPT-13" value="По назначению" style="ellipse;whiteSpace=wrap;html=1;" parent="1" vertex="1">
          <mxGeometry x="1380" y="630" width="100" height="50" as="geometry" />
        </mxCell>
        <mxCell id="ngTAUGNhP66DBJBYgdPT-14" value="По цене" style="ellipse;whiteSpace=wrap;html=1;" parent="1" vertex="1">
          <mxGeometry x="1200" y="585" width="100" height="50" as="geometry" />
        </mxCell>
        <mxCell id="ngTAUGNhP66DBJBYgdPT-15" value="По срокам аренды" style="ellipse;whiteSpace=wrap;html=1;" parent="1" vertex="1">
          <mxGeometry x="1260" y="660" width="100" height="50" as="geometry" />
        </mxCell>
        <mxCell id="ngTAUGNhP66DBJBYgdPT-22" value="&amp;lt;include&amp;gt;" style="endArrow=open;endSize=12;dashed=1;html=1;fontSize=12;entryX=1;entryY=1;entryDx=0;entryDy=0;exitX=0;exitY=0.5;exitDx=0;exitDy=0;" parent="1" source="SECi2cDUqw07FHAR2u1D-3" target="ngTAUGNhP66DBJBYgdPT-8" edge="1">
          <mxGeometry x="-0.1883" y="-13" width="160" relative="1" as="geometry">
            <mxPoint x="1186" y="440" as="sourcePoint" />
            <mxPoint x="1437" y="514.5" as="targetPoint" />
            <Array as="points" />
            <mxPoint as="offset" />
          </mxGeometry>
        </mxCell>
        <mxCell id="ngTAUGNhP66DBJBYgdPT-28" value="&amp;lt;include&amp;gt;" style="endArrow=open;endSize=12;dashed=1;html=1;fontSize=12;entryX=0.5;entryY=0;entryDx=0;entryDy=0;exitX=0.5;exitY=1;exitDx=0;exitDy=0;" parent="1" source="SECi2cDUqw07FHAR2u1D-3" target="SECi2cDUqw07FHAR2u1D-1" edge="1">
          <mxGeometry x="0.036" y="10" width="160" relative="1" as="geometry">
            <mxPoint x="1167" y="450" as="sourcePoint" />
            <mxPoint x="1112" y="485" as="targetPoint" />
            <Array as="points" />
            <mxPoint as="offset" />
          </mxGeometry>
        </mxCell>
        <mxCell id="ngTAUGNhP66DBJBYgdPT-29" value="" style="endArrow=block;endFill=0;endSize=12;html=1;exitX=1;exitY=0;exitDx=0;exitDy=0;entryX=0;entryY=0.5;entryDx=0;entryDy=0;" parent="1" source="ngTAUGNhP66DBJBYgdPT-14" target="SECi2cDUqw07FHAR2u1D-1" edge="1">
          <mxGeometry width="160" relative="1" as="geometry">
            <mxPoint x="831" y="750" as="sourcePoint" />
            <mxPoint x="991" y="750" as="targetPoint" />
          </mxGeometry>
        </mxCell>
        <mxCell id="ngTAUGNhP66DBJBYgdPT-30" value="" style="endArrow=block;endFill=0;endSize=12;html=1;entryX=0.37;entryY=0.98;entryDx=0;entryDy=0;exitX=0.5;exitY=0;exitDx=0;exitDy=0;entryPerimeter=0;" parent="1" source="ngTAUGNhP66DBJBYgdPT-15" target="SECi2cDUqw07FHAR2u1D-1" edge="1">
          <mxGeometry width="160" relative="1" as="geometry">
            <mxPoint x="637" y="870" as="sourcePoint" />
            <mxPoint x="797" y="870" as="targetPoint" />
          </mxGeometry>
        </mxCell>
        <mxCell id="ngTAUGNhP66DBJBYgdPT-31" value="" style="endArrow=block;endFill=0;endSize=12;html=1;exitX=0.5;exitY=0;exitDx=0;exitDy=0;entryX=1;entryY=1;entryDx=0;entryDy=0;" parent="1" source="ngTAUGNhP66DBJBYgdPT-13" target="SECi2cDUqw07FHAR2u1D-1" edge="1">
          <mxGeometry width="160" relative="1" as="geometry">
            <mxPoint x="962.3553390593274" y="644.6423304703363" as="sourcePoint" />
            <mxPoint x="1037" y="630" as="targetPoint" />
          </mxGeometry>
        </mxCell>
        <mxCell id="ngTAUGNhP66DBJBYgdPT-38" value="" style="endArrow=open;html=1;shadow=0;strokeWidth=1;dashed=1;endFill=0;endSize=12;sketch=0;exitX=1;exitY=0.5;exitDx=0;exitDy=0;entryX=0;entryY=0;entryDx=0;entryDy=0;" parent="1" source="ngTAUGNhP66DBJBYgdPT-40" target="ngTAUGNhP66DBJBYgdPT-8" edge="1">
          <mxGeometry width="50" height="50" relative="1" as="geometry">
            <mxPoint x="1304" y="630" as="sourcePoint" />
            <mxPoint x="1217" y="716" as="targetPoint" />
          </mxGeometry>
        </mxCell>
        <mxCell id="ngTAUGNhP66DBJBYgdPT-39" value="&quot;extend&quot;" style="edgeLabel;html=1;align=center;verticalAlign=middle;resizable=0;points=[];fontSize=12;" parent="ngTAUGNhP66DBJBYgdPT-38" vertex="1" connectable="0">
          <mxGeometry x="0.1875" y="-2" relative="1" as="geometry">
            <mxPoint x="13" y="-17" as="offset" />
          </mxGeometry>
        </mxCell>
        <mxCell id="ngTAUGNhP66DBJBYgdPT-40" value="Отменить заказ" style="ellipse;whiteSpace=wrap;html=1;" parent="1" vertex="1">
          <mxGeometry x="960" y="250" width="100" height="50" as="geometry" />
        </mxCell>
        <mxCell id="ngTAUGNhP66DBJBYgdPT-71" value="Произвести возврат товара" style="ellipse;whiteSpace=wrap;html=1;" parent="1" vertex="1">
          <mxGeometry x="1490" y="260" width="110" height="50" as="geometry" />
        </mxCell>
        <mxCell id="ngTAUGNhP66DBJBYgdPT-74" value="&amp;lt;include&amp;gt;" style="endArrow=open;endSize=12;dashed=1;html=1;fontSize=12;exitX=0;exitY=0;exitDx=0;exitDy=0;entryX=1;entryY=0.5;entryDx=0;entryDy=0;" parent="1" source="ngTAUGNhP66DBJBYgdPT-71" target="ngTAUGNhP66DBJBYgdPT-75" edge="1">
          <mxGeometry x="-0.0836" width="160" relative="1" as="geometry">
            <mxPoint x="1237" y="280" as="sourcePoint" />
            <mxPoint x="1197" y="240" as="targetPoint" />
            <Array as="points" />
            <mxPoint as="offset" />
          </mxGeometry>
        </mxCell>
        <mxCell id="ngTAUGNhP66DBJBYgdPT-75" value="Связаться с арендодателем" style="ellipse;whiteSpace=wrap;html=1;" parent="1" vertex="1">
          <mxGeometry x="1290" y="170" width="110" height="50" as="geometry" />
        </mxCell>
        <mxCell id="ngTAUGNhP66DBJBYgdPT-77" value="Написать в чате" style="ellipse;whiteSpace=wrap;html=1;" parent="1" vertex="1">
          <mxGeometry x="1186" y="70" width="110" height="50" as="geometry" />
        </mxCell>
        <mxCell id="ngTAUGNhP66DBJBYgdPT-78" value="Позвонить по телефону" style="ellipse;whiteSpace=wrap;html=1;" parent="1" vertex="1">
          <mxGeometry x="1350" y="70" width="110" height="50" as="geometry" />
        </mxCell>
        <mxCell id="ngTAUGNhP66DBJBYgdPT-79" value="" style="endArrow=block;endFill=0;endSize=12;html=1;exitX=0.597;exitY=1.008;exitDx=0;exitDy=0;entryX=0;entryY=0;entryDx=0;entryDy=0;exitPerimeter=0;" parent="1" source="ngTAUGNhP66DBJBYgdPT-77" target="ngTAUGNhP66DBJBYgdPT-75" edge="1">
          <mxGeometry width="160" relative="1" as="geometry">
            <mxPoint x="947" y="280" as="sourcePoint" />
            <mxPoint x="1237" y="160" as="targetPoint" />
          </mxGeometry>
        </mxCell>
        <mxCell id="ngTAUGNhP66DBJBYgdPT-80" value="" style="endArrow=block;endFill=0;endSize=12;html=1;exitX=0;exitY=1;exitDx=0;exitDy=0;entryX=0.5;entryY=0;entryDx=0;entryDy=0;" parent="1" source="ngTAUGNhP66DBJBYgdPT-78" target="ngTAUGNhP66DBJBYgdPT-75" edge="1">
          <mxGeometry width="160" relative="1" as="geometry">
            <mxPoint x="1337" y="145" as="sourcePoint" />
            <mxPoint x="1412.0100000000002" y="185" as="targetPoint" />
          </mxGeometry>
        </mxCell>
        <mxCell id="ngTAUGNhP66DBJBYgdPT-81" value="Передать товар курьеру" style="ellipse;whiteSpace=wrap;html=1;" parent="1" vertex="1">
          <mxGeometry x="1480" y="140" width="110" height="50" as="geometry" />
        </mxCell>
        <mxCell id="ngTAUGNhP66DBJBYgdPT-82" value="&amp;lt;include&amp;gt;" style="endArrow=open;endSize=12;dashed=1;html=1;fontSize=12;exitX=0.5;exitY=0;exitDx=0;exitDy=0;entryX=0.5;entryY=1;entryDx=0;entryDy=0;" parent="1" source="ngTAUGNhP66DBJBYgdPT-71" target="ngTAUGNhP66DBJBYgdPT-81" edge="1">
          <mxGeometry x="-0.0836" width="160" relative="1" as="geometry">
            <mxPoint x="1372" y="300" as="sourcePoint" />
            <mxPoint x="1322" y="280" as="targetPoint" />
            <Array as="points" />
            <mxPoint as="offset" />
          </mxGeometry>
        </mxCell>
        <mxCell id="ngTAUGNhP66DBJBYgdPT-84" value="Получить товар" style="ellipse;whiteSpace=wrap;html=1;" parent="1" vertex="1">
          <mxGeometry x="1470" y="485" width="110" height="50" as="geometry" />
        </mxCell>
        <mxCell id="ngTAUGNhP66DBJBYgdPT-85" value="Проверить товар" style="ellipse;whiteSpace=wrap;html=1;" parent="1" vertex="1">
          <mxGeometry x="1513" y="570" width="110" height="50" as="geometry" />
        </mxCell>
        <mxCell id="ngTAUGNhP66DBJBYgdPT-87" value="&amp;lt;include&amp;gt;" style="endArrow=open;endSize=12;dashed=1;html=1;fontSize=12;exitX=0.5;exitY=1;exitDx=0;exitDy=0;entryX=0.5;entryY=0;entryDx=0;entryDy=0;" parent="1" source="ngTAUGNhP66DBJBYgdPT-84" target="ngTAUGNhP66DBJBYgdPT-85" edge="1">
          <mxGeometry x="0.6526" y="31" width="160" relative="1" as="geometry">
            <mxPoint x="1447.0008729652604" y="532.677669529664" as="sourcePoint" />
            <mxPoint x="1538.1100000000001" y="580" as="targetPoint" />
            <Array as="points" />
            <mxPoint as="offset" />
          </mxGeometry>
        </mxCell>
        <mxCell id="ngTAUGNhP66DBJBYgdPT-92" value="Использовать товар в действии" style="ellipse;whiteSpace=wrap;html=1;" parent="1" vertex="1">
          <mxGeometry x="1513" y="670" width="123" height="50" as="geometry" />
        </mxCell>
        <mxCell id="ngTAUGNhP66DBJBYgdPT-94" value="" style="endArrow=open;html=1;shadow=0;strokeWidth=1;dashed=1;endFill=0;endSize=12;sketch=0;entryX=0.5;entryY=1;entryDx=0;entryDy=0;exitX=0.5;exitY=0;exitDx=0;exitDy=0;" parent="1" source="ngTAUGNhP66DBJBYgdPT-92" target="ngTAUGNhP66DBJBYgdPT-85" edge="1">
          <mxGeometry width="50" height="50" relative="1" as="geometry">
            <mxPoint x="1477" y="720" as="sourcePoint" />
            <mxPoint x="1571" y="784.75" as="targetPoint" />
          </mxGeometry>
        </mxCell>
        <mxCell id="ngTAUGNhP66DBJBYgdPT-95" value="&quot;extend&quot;" style="edgeLabel;html=1;align=center;verticalAlign=middle;resizable=0;points=[];fontSize=12;" parent="ngTAUGNhP66DBJBYgdPT-94" vertex="1" connectable="0">
          <mxGeometry x="0.1875" y="-2" relative="1" as="geometry">
            <mxPoint x="-34" y="6" as="offset" />
          </mxGeometry>
        </mxCell>
        <mxCell id="ngTAUGNhP66DBJBYgdPT-97" value="" style="endArrow=none;endFill=0;endSize=12;html=1;rounded=1;strokeWidth=2;exitX=1;exitY=0.5;exitDx=0;exitDy=0;" parent="1" source="SECi2cDUqw07FHAR2u1D-3" target="ngTAUGNhP66DBJBYgdPT-4" edge="1">
          <mxGeometry width="160" relative="1" as="geometry">
            <mxPoint x="1417" y="520" as="sourcePoint" />
            <mxPoint x="1577" y="520" as="targetPoint" />
          </mxGeometry>
        </mxCell>
        <mxCell id="ngTAUGNhP66DBJBYgdPT-98" value="" style="endArrow=none;endFill=0;endSize=12;html=1;rounded=1;strokeWidth=2;exitX=1;exitY=1;exitDx=0;exitDy=0;" parent="1" source="ngTAUGNhP66DBJBYgdPT-71" target="ngTAUGNhP66DBJBYgdPT-4" edge="1">
          <mxGeometry width="160" relative="1" as="geometry">
            <mxPoint x="1177" y="370" as="sourcePoint" />
            <mxPoint x="1417" y="400" as="targetPoint" />
          </mxGeometry>
        </mxCell>
        <mxCell id="ngTAUGNhP66DBJBYgdPT-100" value="Продлить аренду товара" style="ellipse;whiteSpace=wrap;html=1;" parent="1" vertex="1">
          <mxGeometry x="1327" y="320" width="110" height="50" as="geometry" />
        </mxCell>
        <mxCell id="ngTAUGNhP66DBJBYgdPT-102" value="Оплатить аренду&lt;br&gt;товара" style="ellipse;whiteSpace=wrap;html=1;" parent="1" vertex="1">
          <mxGeometry x="1150" y="180" width="110" height="50" as="geometry" />
        </mxCell>
        <mxCell id="ngTAUGNhP66DBJBYgdPT-105" value="&amp;lt;include&amp;gt;" style="endArrow=open;endSize=12;dashed=1;html=1;fontSize=12;exitX=0.5;exitY=0;exitDx=0;exitDy=0;entryX=0.5;entryY=1;entryDx=0;entryDy=0;" parent="1" source="ngTAUGNhP66DBJBYgdPT-100" target="ngTAUGNhP66DBJBYgdPT-75" edge="1">
          <mxGeometry width="160" relative="1" as="geometry">
            <mxPoint x="1384" y="305" as="sourcePoint" />
            <mxPoint x="1194" y="265" as="targetPoint" />
            <Array as="points" />
            <mxPoint as="offset" />
          </mxGeometry>
        </mxCell>
        <mxCell id="ngTAUGNhP66DBJBYgdPT-106" value="&amp;lt;include&amp;gt;" style="endArrow=open;endSize=12;dashed=1;html=1;fontSize=12;exitX=0;exitY=0;exitDx=0;exitDy=0;entryX=1;entryY=0.5;entryDx=0;entryDy=0;" parent="1" source="ngTAUGNhP66DBJBYgdPT-100" target="ngTAUGNhP66DBJBYgdPT-102" edge="1">
          <mxGeometry x="-0.1564" y="16" width="160" relative="1" as="geometry">
            <mxPoint x="1177" y="260" as="sourcePoint" />
            <mxPoint x="987" y="220" as="targetPoint" />
            <Array as="points" />
            <mxPoint x="-1" as="offset" />
          </mxGeometry>
        </mxCell>
        <mxCell id="ngTAUGNhP66DBJBYgdPT-107" value="&amp;lt;include&amp;gt;" style="endArrow=open;endSize=12;dashed=1;html=1;fontSize=12;exitX=1;exitY=0;exitDx=0;exitDy=0;entryX=0.5;entryY=1;entryDx=0;entryDy=0;" parent="1" source="ngTAUGNhP66DBJBYgdPT-8" target="ngTAUGNhP66DBJBYgdPT-102" edge="1">
          <mxGeometry x="-0.0346" y="-20" width="160" relative="1" as="geometry">
            <mxPoint x="1147" y="340" as="sourcePoint" />
            <mxPoint x="957" y="300" as="targetPoint" />
            <Array as="points" />
            <mxPoint x="-1" as="offset" />
          </mxGeometry>
        </mxCell>
        <mxCell id="ngTAUGNhP66DBJBYgdPT-108" value="" style="endArrow=none;endFill=0;endSize=12;html=1;rounded=1;strokeWidth=2;exitX=1;exitY=1;exitDx=0;exitDy=0;" parent="1" source="ngTAUGNhP66DBJBYgdPT-100" target="ngTAUGNhP66DBJBYgdPT-4" edge="1">
          <mxGeometry width="160" relative="1" as="geometry">
            <mxPoint x="1222" y="383.88" as="sourcePoint" />
            <mxPoint x="1542" y="390" as="targetPoint" />
          </mxGeometry>
        </mxCell>
        <mxCell id="Q_d8XJE9VoqQTzxeZHrw-4" value="Безналичный&lt;br&gt;способ" style="ellipse;whiteSpace=wrap;html=1;" vertex="1" parent="1">
          <mxGeometry x="1060" y="60" width="100" height="50" as="geometry" />
        </mxCell>
        <mxCell id="Q_d8XJE9VoqQTzxeZHrw-34" value="&amp;lt;include&amp;gt;" style="endArrow=open;endSize=12;dashed=1;html=1;fontSize=12;entryX=0;entryY=0;entryDx=0;entryDy=0;exitX=1;exitY=1;exitDx=0;exitDy=0;" edge="1" parent="1" source="SECi2cDUqw07FHAR2u1D-3" target="ngTAUGNhP66DBJBYgdPT-84">
          <mxGeometry x="0.1234" y="19" width="160" relative="1" as="geometry">
            <mxPoint x="1406" y="449.9999999999998" as="sourcePoint" />
            <mxPoint x="1400" y="554.9999999999998" as="targetPoint" />
            <Array as="points" />
            <mxPoint as="offset" />
          </mxGeometry>
        </mxCell>
        <mxCell id="Q_d8XJE9VoqQTzxeZHrw-39" value="Выбрать адрес доставки" style="ellipse;whiteSpace=wrap;html=1;" vertex="1" parent="1">
          <mxGeometry x="950" y="540" width="100" height="50" as="geometry" />
        </mxCell>
        <mxCell id="Q_d8XJE9VoqQTzxeZHrw-40" value="Доставка по адресу" style="ellipse;whiteSpace=wrap;html=1;" vertex="1" parent="1">
          <mxGeometry x="940" y="460" width="100" height="50" as="geometry" />
        </mxCell>
        <mxCell id="Q_d8XJE9VoqQTzxeZHrw-41" value="Выбрать способ получения" style="ellipse;whiteSpace=wrap;html=1;" vertex="1" parent="1">
          <mxGeometry x="1010" y="380" width="100" height="50" as="geometry" />
        </mxCell>
        <mxCell id="Q_d8XJE9VoqQTzxeZHrw-42" value="Самовывоз" style="ellipse;whiteSpace=wrap;html=1;" vertex="1" parent="1">
          <mxGeometry x="1070" y="485" width="100" height="50" as="geometry" />
        </mxCell>
        <mxCell id="Q_d8XJE9VoqQTzxeZHrw-43" value="Выбрать дату получения и возврата" style="ellipse;whiteSpace=wrap;html=1;" vertex="1" parent="1">
          <mxGeometry x="1120" y="400" width="100" height="50" as="geometry" />
        </mxCell>
        <mxCell id="Q_d8XJE9VoqQTzxeZHrw-62" value="Выбрать способ оплаты" style="ellipse;whiteSpace=wrap;html=1;" vertex="1" parent="1">
          <mxGeometry x="970" y="130" width="100" height="50" as="geometry" />
        </mxCell>
        <mxCell id="Q_d8XJE9VoqQTzxeZHrw-63" value="Наличный способ" style="ellipse;whiteSpace=wrap;html=1;" vertex="1" parent="1">
          <mxGeometry x="810" y="130" width="100" height="50" as="geometry" />
        </mxCell>
        <mxCell id="Q_d8XJE9VoqQTzxeZHrw-71" value="&amp;lt;include&amp;gt;" style="endArrow=open;endSize=12;dashed=1;html=1;fontSize=12;exitX=0;exitY=0;exitDx=0;exitDy=0;entryX=1;entryY=0.5;entryDx=0;entryDy=0;" edge="1" parent="1" source="ngTAUGNhP66DBJBYgdPT-102" target="Q_d8XJE9VoqQTzxeZHrw-62">
          <mxGeometry x="-0.1212" y="-19" width="160" relative="1" as="geometry">
            <mxPoint x="1085.3553390593274" y="292.32233047033606" as="sourcePoint" />
            <mxPoint x="1176.1935803152219" y="232.7159742039205" as="targetPoint" />
            <Array as="points" />
            <mxPoint as="offset" />
          </mxGeometry>
        </mxCell>
        <mxCell id="Q_d8XJE9VoqQTzxeZHrw-73" value="&amp;lt;include&amp;gt;" style="endArrow=open;endSize=12;dashed=1;html=1;fontSize=12;entryX=0.5;entryY=0;entryDx=0;entryDy=0;exitX=0.5;exitY=1;exitDx=0;exitDy=0;" edge="1" parent="1" source="ngTAUGNhP66DBJBYgdPT-8" target="Q_d8XJE9VoqQTzxeZHrw-43">
          <mxGeometry x="0.2195" y="17" width="160" relative="1" as="geometry">
            <mxPoint x="949.9999999999995" y="370.0000000000002" as="sourcePoint" />
            <mxPoint x="1014.6446609406721" y="327.6776695296635" as="targetPoint" />
            <Array as="points" />
            <mxPoint as="offset" />
          </mxGeometry>
        </mxCell>
        <mxCell id="Q_d8XJE9VoqQTzxeZHrw-74" value="&amp;lt;include&amp;gt;" style="endArrow=open;endSize=12;dashed=1;html=1;fontSize=12;entryX=0.5;entryY=0;entryDx=0;entryDy=0;exitX=0.358;exitY=1.026;exitDx=0;exitDy=0;exitPerimeter=0;" edge="1" parent="1" source="ngTAUGNhP66DBJBYgdPT-8" target="Q_d8XJE9VoqQTzxeZHrw-41">
          <mxGeometry x="0.4157" y="-22" width="160" relative="1" as="geometry">
            <mxPoint x="959.9999999999995" y="380.0000000000002" as="sourcePoint" />
            <mxPoint x="1024.644660940672" y="337.6776695296635" as="targetPoint" />
            <Array as="points" />
            <mxPoint y="-1" as="offset" />
          </mxGeometry>
        </mxCell>
        <mxCell id="Q_d8XJE9VoqQTzxeZHrw-78" value="" style="endArrow=block;endFill=0;endSize=12;html=1;exitX=1;exitY=0.5;exitDx=0;exitDy=0;entryX=0;entryY=0.5;entryDx=0;entryDy=0;" edge="1" parent="1" source="Q_d8XJE9VoqQTzxeZHrw-63" target="Q_d8XJE9VoqQTzxeZHrw-62">
          <mxGeometry width="160" relative="1" as="geometry">
            <mxPoint x="927" y="170.00000000000009" as="sourcePoint" />
            <mxPoint x="981.5235803152427" y="226.88402579608905" as="targetPoint" />
          </mxGeometry>
        </mxCell>
        <mxCell id="Q_d8XJE9VoqQTzxeZHrw-79" value="" style="endArrow=block;endFill=0;endSize=12;html=1;exitX=0;exitY=1;exitDx=0;exitDy=0;entryX=1;entryY=0;entryDx=0;entryDy=0;" edge="1" parent="1" source="Q_d8XJE9VoqQTzxeZHrw-4" target="Q_d8XJE9VoqQTzxeZHrw-62">
          <mxGeometry width="160" relative="1" as="geometry">
            <mxPoint x="919.9999999999995" y="165" as="sourcePoint" />
            <mxPoint x="979.9999999999995" y="165" as="targetPoint" />
          </mxGeometry>
        </mxCell>
        <mxCell id="Q_d8XJE9VoqQTzxeZHrw-80" value="" style="endArrow=block;endFill=0;endSize=12;html=1;entryX=0.5;entryY=1;entryDx=0;entryDy=0;exitX=0.5;exitY=0;exitDx=0;exitDy=0;" edge="1" parent="1" source="Q_d8XJE9VoqQTzxeZHrw-42" target="Q_d8XJE9VoqQTzxeZHrw-41">
          <mxGeometry width="160" relative="1" as="geometry">
            <mxPoint x="1100" y="560" as="sourcePoint" />
            <mxPoint x="989.9999999999995" y="175" as="targetPoint" />
            <Array as="points" />
          </mxGeometry>
        </mxCell>
        <mxCell id="Q_d8XJE9VoqQTzxeZHrw-81" value="" style="endArrow=block;endFill=0;endSize=12;html=1;exitX=0.5;exitY=0;exitDx=0;exitDy=0;entryX=0;entryY=1;entryDx=0;entryDy=0;" edge="1" parent="1" source="Q_d8XJE9VoqQTzxeZHrw-40" target="Q_d8XJE9VoqQTzxeZHrw-41">
          <mxGeometry width="160" relative="1" as="geometry">
            <mxPoint x="1099.9999999999995" y="559.9999999999998" as="sourcePoint" />
            <mxPoint x="1065.3553390593274" y="512.6776695296637" as="targetPoint" />
            <Array as="points" />
          </mxGeometry>
        </mxCell>
        <mxCell id="Q_d8XJE9VoqQTzxeZHrw-82" value="&amp;lt;include&amp;gt;" style="endArrow=open;endSize=12;dashed=1;html=1;fontSize=12;exitX=0.5;exitY=1;exitDx=0;exitDy=0;entryX=0.5;entryY=0;entryDx=0;entryDy=0;" edge="1" parent="1" source="Q_d8XJE9VoqQTzxeZHrw-40" target="Q_d8XJE9VoqQTzxeZHrw-39">
          <mxGeometry y="-30" width="160" relative="1" as="geometry">
            <mxPoint x="1068.8199999999995" y="747.2499999999998" as="sourcePoint" />
            <mxPoint x="1069.9199999999998" y="610" as="targetPoint" />
            <Array as="points" />
            <mxPoint as="offset" />
          </mxGeometry>
        </mxCell>
      </root>
    </mxGraphModel>
  </diagram>
</mxfile>
